<svg xmlns="http://www.w3.org/2000/svg" width="20" height="18" viewBox="0 0 20 18"><path fill="#fff" d="M10 12.23c.09 0 .19-.04.26-.11l4.33-4.28a.36.36 0 0 0 0-.52.36.36 0 0 0-.52 0l-3.7 3.65V.87a.38.38 0 0 0-.75 0v10.1L5.93 7.32a.36.36 0 0 0-.52 0 .36.36 0 0 0 0 .52l4.33 4.28c.07.07.16.11.26.11zm9.13-3.1c.2 0 .37.17.37.37v7.63c0 .2-.17.37-.37.37H.87a.38.38 0 0 1-.37-.37V9.5a.37.37 0 1 1 .74 0v7.26h17.52V9.5c0-.2.16-.37.37-.37z"/><path fill="none" stroke="#fff" stroke-miterlimit="50" d="M10 12.23c.09 0 .19-.04.26-.11l4.33-4.28a.36.36 0 0 0 0-.52.36.36 0 0 0-.52 0l-3.7 3.65V.87a.38.38 0 0 0-.75 0v10.1L5.93 7.32a.36.36 0 0 0-.52 0 .36.36 0 0 0 0 .52l4.33 4.28c.07.07.16.11.26.11zm9.13-3.1c.2 0 .37.17.37.37v7.63c0 .2-.17.37-.37.37H.87a.38.38 0 0 1-.37-.37V9.5a.37.37 0 1 1 .74 0v7.26h17.52V9.5c0-.2.16-.37.37-.37z"/></svg>