<svg xmlns="http://www.w3.org/2000/svg" width="600" height="328" viewBox="0 0 600 328"><path fill="#004692" d="M61.64 166.49c5.25-12.95 3.85-26.24 6.65-40.23 0-1.05 1.4-.35 1.05-1.4 1.05-9.09 3.85-17.48 3.85-27.98 1.75-4.54 2.1-7.34 1.4-13.64 0-1.4 1.4-1.05 1.05-2.45 1.04-13.64 0-25.53 4.89-35.32-.35-3.15.35-4.9 0-8.4-2.8-3.84-5.24-8.39-9.79-10.49-3.15.7-6.3-1.4-9.1-2.45-.34 1.05-.69 1.05-1.74.7-1.75 4.9-3.85 9.1-4.55 14.69-.35.7-1.75 0-1.4 1.05.35.35.35 1.4.35 2.1-2.8 8.05-3.85 15.39-6.65 23.78-.69 10.15-4.89 21.69-5.59 32.53-.7.35-.7 1.75-1.4 2.1-.7 6.3-2.45 11.89-4.2 17.14-1.75 7.69-2.8 16.09-5.24 22.73-.35 12.59-3.5 25.89-5.25 36.73 0 1.05.7 1.4.35 2.8-2.1 4.54-1.4 13.64-3.85 18.53-.7 9.1-3.15 21.69-5.59 31.13-1.05 8.75-3.15 15.04-4.9 23.44 0 3.84-.7 5.24-1.4 8.39-1.4 10.84-7.02 29.46-7.72 33.3-.7 2.45-2.45 4.55-2.8 7-.35 2.45 1.05 4.9 0 7.34 0 1.4 1.4 1.4 1.4 2.8s-1.4 2.1-.35 3.15c3.14 0 6.29 1.05 9.79.7.35-.7-.35-2.45 1.05-2.8.35 1.75 2.1 1.75 2.8 3.15.35-1.4 1.05-2.45 2.45-2.8.7.35 2.09.7 2.44.35 2.45-2.1 7.7-6.99 6.65-11.54 2.1-2.1 3.15-5.25 4.55-8.05 4.41-7.96 9.25-19.86 12.98-31.89a202.1 202.1 0 0 0 2.79-9.8c0-2.1-.35-2.45 0-4.2 2.09-7.35 4.89-15.04 8.74-21.69 0-1.4-.35-1.4 0-2.44 3.5-7 6.29-12.25 10.84-18.19 0-.7.7-1.4 0-2.1 2.45-1.4 2.8-5.25 5.6-6.65.35-4.19 5.24-6.99 6.99-10.14 1.05 0 1.4-1.05 2.8-1.05 1.75-5.59 8.05-6.64 11.54-10.49 5.6-2.45 9.8-2.1 16.09-1.4.35.7 1.4 1.05 2.45 1.4 5.6 5.25 8.39 12.94 11.19 20.63 1.4 16.79-1.4 36.38-1.4 51.07-.7 5.6-1.74 11.19-1.74 16.44 0 5.59 1.74 10.49 1.74 15.74 1.75 8.74 7.35 15.74 17.49 14.69 4.2-.35 7.35-3.15 10.84-4.9 1.75-3.15 4.55-5.95 7.35-8.04.35-1.4 1.75-1.75 1.75-3.5 4.46-2.51 5.58-8.58 7.28-14.3-1.17-3.2-2.32-6.6-3.25-10.19-5.5 12.05-12.97 22.13-23.27 29.39a24.84 24.84 0 0 1-3.5-4.9c-1.75-8.4.7-16.09.7-23.78 0-1.4-.7-2.8-.7-4.2 0-4.55.35-10.14.7-15.39 0-4.55.35-9.1 0-13.29-.7-9.45 0-18.54-.7-27.63-.7-1.05-1.05-2.45-.7-4.55-4.54-10.84-7.69-22.73-16.43-29.03-2.1-.35-3.85-1.05-4.9-2.45-8.05-2.8-16.44-1.05-24.48 1.05-11.55 4.9-21.69 13.64-29.73 20.99 1.74-3.5 1.74-8.4 1.74-13.29zm104.52 97.26c.6 1.68 1.22 3.3 1.81 4.87 3.5 4.54 7.35 8.74 10.84 13.29 6.3 4.19 12.25 7.34 19.59 9.44.35-.35 1.05.35 1.4-.7.7.7 2.1 1.05 3.15 1.75.35-1.4 2.1-.7 2.45-.7 3.84.35 6.99-.35 10.14.7 2.45-1.4 6.64-1.4 8.74-3.85.7 0 .7 1.05 1.4 1.05 17.14-5.6 32.53-16.09 43.02-29.38 5.88-5.07 10.53-11.37 15.67-17.18.22-2.92.37-5.93.42-9.05 1.75-2.45 1.4-4.55 2.1-8.74 1.46-1.46 2.19-5.59 1.99-8.14-2.25 2.54-4.68 4.78-5.84 8.83-7.34 7.35-12.59 16.44-19.58 23.79-.7 0-1.4 0-1.75.35-.35 1.05-.7 1.4-1.05 2.45-14.34 11.19-26.58 29.03-53.86 23.43-4.2-2.1-7.35-5.25-10.85-8.04-2.8-4.55-6.29-9.1-6.64-15.04 9.09-4.55 15.04-12.6 23.78-17.84 2.1-3.5 5.6-5.6 7.35-9.1 2.44-.35 2.09-2.79 4.89-2.79.7-2.8 3.5-3.5 4.55-5.95 2.8-1.4 5.25-3.15 6.64-5.95 13.65-11.19 25.89-23.43 35.68-38.82 1.05-2.45-.7-3.5 0-5.24-1.75-.35-1.4-2.1-1.75-3.85-2.1-3.85-6.64-5.6-10.84-8.4-2.1-1.05-3.15-3.14-4.55-3.84-.7-.35-.7.7-1.75.35s-1.05-1.4-1.75-1.4c-15.73-2.8-30.07 2.45-39.87 8.39-17.84 13.64-31.48 31.48-43.02 51.42a20.3 20.3 0 0 1-3.15 7.34c-2.09 10.14-4.19 19.94-3.49 32.53.26 1.3.56 2.58.88 3.84 2.72-5.96 4.96-12.4 6.81-19.23.35-.7.7-1.75 1.75-1.75 0-1.75.7-3.5 1.4-4.55 0 8.05-2.45 19.94-4.9 27.63.35 1.75-.7 2.1-.35 3.85a40.62 40.62 0 0 0-1.46 4.23zm118.21-20.7c-1.21 16.36-4.53 30.14-4.82 47.95.34 0 .34.7 0 0-.7 1.4.69 4.9-1.05 7 .7 10.84 5.24 24.48 16.78 27.63 0-.35.35-.35 0 0 8.05 5.59 20.99-.35 27.99-3.5 5.94-5.95 9.44-12.24 14.68-18.54 0-.7.7-1.05 0-1.75 7-6.99 11.9-16.44 18.19-24.48.27-1.18.67-2.25 1.13-3.24 1-8.96 2.4-17.35 3.3-26.36-.68.97-1.44 1.88-2.33 2.67-5.25 13.64-15.39 22.73-22.38 34.62-7.35 7.7-13.29 17.14-22.04 23.79-.7-1.4-.35-3.85-1.75-4.9-.35 0-.35 0-.35-.35.35 0 .35 0 .35.35 1.05-2.1-3.15-5.6-1.4-7.34-1.05 0-1.4 0-1.4-1.05.7 0 1.4.35 1.4-.35-1.4-3.15-1.05-4.55.35-7.35-2.1-1.75.35-3.15.35-5.59 1.05 0 .7.7 1.4 0 .7-1.4.35-1.4.7-3.5h-.35c-.7 1.05-.7 2.45-2.1 2.45 0-.35-.35-.35-.7-.35 0-5.25 2.1-7.7.35-11.89.7 0 .7-.35 1.05-.35-.7-4.9 2.1-9.1.7-14 .35-.69.7-1.04 1.05-1.74-.7 0-1.05-.35-1.05-.7 1.4 0 1.4-1.4 2.8-1.05-.7-3.15.7-4.55 1.05-8.05 0-.7-1.05-.35-1.05-1.05.7-4.54 2.45-10.84 1.75-14.69 0-1.05 1.4-.35 1.05-1.4-1.75-1.04 1.4-2.44-.35-4.19 3.85-6.65.7-13.64 3.85-21.34 0-1.05-1.05-.7-1.05-1.75 1.4-3.49 2.1-9.09 4.19-11.89-2.44-3.85 1.05-7.69 0-11.54 1.05 0 .35-2.1 2.1-1.4-1.75-4.55 2.1-7.69 3.85-10.84-1.4-1.4-.35-3.15-1.75-4.2 1.4-1.05.7-3.5 2.8-2.8-1.05-2.1 3.15-4.19.35-5.94 1.4-.7 1.05-2.1.35-3.15 3.5-5.95 4.2-12.94 7.34-18.54 0-.7 0-1.4-.35-1.75 5.95-3.84 9.8-10.49 15.39-15.04 8.05-7.34 12.25-18.88 18.19-28.33-.7 0-.7-.35-.7-.7 3.5-1.75 3.85-6.64 6.3-9.44-1.75-2.1 1.05-4.55 0-7 2.8-6.64 4.19-15.73 6.99-23.43.35-12.59 8.75-29.03-1.75-38.47V2.45C381.67.7 379.58.35 376.43 0c0 .35 0 1.05-.35 1.05-5.25 1.4-10.49-.35-16.44-.7-.35 1.75-2.1 2.1-3.5 3.15-8.04 9.79-16.79 20.63-20.63 33.22-1.75 1.05-2.45 3.5-2.8 5.95-5.95 14.34-12.24 32.18-14.69 46.87-2.1 2.1-3.5 6.64-2.8 9.09-1.4-.35-.35 1.75-1.75 1.4.35 1.4.35 1.05.35 2.8-.7 0-1.05.35-1.05 1.05.7 0 1.05-.7 1.05 0-.7 2.8-2.45 4.55-2.1 8.04-.7 0-.35 1.05-1.4.7-.35 1.05 1.05.7.7 1.75-1.05 0-1.05-.7-1.4.35.35 2.45-4.89 10.14-1.74 12.94 0-2.1.7-3.15 2.79-3.5-1.05 1.4-1.4 3.5-2.79 4.55-.7 0-.35-1.05-1.4-.7-1.05 1.05 1.05.35.7 1.75-3.85 4.2-3.5 11.54-5.25 17.14.35.7 1.4.35 1.05 1.75-2.1 3.85-2.8 9.09-3.85 13.64.35 0 1.05 0 1.05.35-1.75 1.4-1.4 3.85-2.8 5.94.7 3.5-2.8 7-1.05 9.45-3.49 12.24-3.49 23.78-7.69 37.77.12.35.2.8.24 1.31 1.82-2.07 3.52-4.34 4.31-7.95a15.62 15.62 0 0 0 3.8-4.5.98.98 0 0 0-.31-.05c0-1.16.62-1.55 1.24-2l.16-.45c.18 0 .35-.09.57-.18.05-.05.09-.1.13-.17.07 0 .13.02.2.06.14-.03.3-.06.5-.06l.23-.38c-1.28-.26-1.3.7-1.98.03.7-.7.7-2.1 1.4-2.8-.7 0-1.05 0-1.4-.35.7-1.4 3.85-.7 3.15-3.14 3.15-.7 1.05-5.95 2.8-8.05-1.75 0-2.1 2.8-3.15 4.2 0 .7.7.7 1.4.7.35 2.45-2.1 1.75-2.1 3.85-.26 0-.9-.38-1.22-.3.47-1.15.34-4.39 1.92-5.65-1.4-2.8 3.15-4.55 4.55-6.65 0-.35-.35-.7-.7-.7.35.7-2.1 2.1-3.5 1.05 0-1.05.7-1.4 2.1-1.4.35-1.04 0-.69 0-2.09h1.75c-1.05 1.4 1.05 1.74 1.75 2.09-.35 1.75-1.4 4.55-.7 6.3.7 0 .7-1.05 1.4-1.4-1.75-1.05.7-3.15-.7-3.5 0-1.4 1.4-1.4 2.44-1.75 0-.69-1.39 0-1.74-.34 0-1.4 1.05-1.75 1.74-2.45 0-.7-1.39-.7-1.04-1.75 1.39-.35 0-2.1 1.04-3.15h-1.39c1.39.7-1.05 2.8-1.75 4.55 0 .35-.7.35 0 0 0-1.4 0-2.45-1.4-2.1.7-1.05 1.75-3.5 0-4.2-.7 0-.35 1.05-1.05.7 0 1.05 1.4.7 1.05 2.1-1.4.35-.7-1.05-1.75-.7-.35-2.45.7-5.25 2.8-4.2 0 .7-.7.7-1.4.7 2.1 1.75 2.1-2.8 1.75-4.89-1.05 0-.35 1.74-1.75 1.39 1.05-1.04-.35-1.74 0-3.14 1.4-.35 2.1.35 1.75 1.75 1.05-.35 1.75-1.4 3.49-1.05-.35 1.4-.35 2.79-1.04 3.49 1.39 0 1.74-1.39 1.39-2.44 1.4 0 1.05 1.74 2.45.7a950.69 950.69 0 0 1-3 18.9c.3.07.6.33.9.33-.35-2.8 3.5-6.29 5.95-8.74 1.05 5.24-2.8 10.49-5.25 14.34-.35 1.4-.35 2.8-1.4 2.8-.35 3.49-2.09 5.24-3.49 7.34-.1.86-.26 1.7-.49 2.5.4 3.31-1.54 6-.91 10.09-2.8 5.25-1.4 13.64-4.55 18.54.7 5.95-2.45 11.89-2.1 18.54-.7 0-.35 1.4-1.05 1.75.7 4.54-1.75 11.19-.7 15.74-.7 4.19-.35 8.04-2.44 12.59-.7.7-1.75.7-2.1 1.4 0 .35.35.69.35 1.39-.7 0-.35-1.04-1.05-1.04v-.35c-1.05-.35-.7 1.04-1.75.69-.7-2.09-.35-4.19 1.05-5.59 0-1.05-1.05-1.05-1.4-2.1 1.4-1.4-.35-5.25 1.75-5.25-1.05-1.05.35-3.49-1.4-4.54 2.1.35 3.15-.7 3.85-1.75 0-.7-1.75.35-1.05-1.05 3.14-.7 2.1-3.15 3.14-5.6 0-.35-.69-.35-1.39-.35.35-1.4 1.04-2.8-.35-3.14 0-.7.35-.7.7-1.05h-1.4c1.05-1.75 1.4-4.2 3.14-5.25 0-.35 0-.7.35-1.05-1.4 0-1.4 1.4-2.79 1.4-.7-.7.7-2.1-1.05-2.1.35-.7 1.05-.7 1.75-1.4-.35-2.8 1.04-5.59 1.39-8.04 1.05.35 1.05 0 1.4-1.05.35 0 .7.35.7.7.7-.35 0-2.1 1.4-1.75.35-1.4-1.05-2.8.7-2.8-.7-1.05-1.75.35-2.45.35-.35-1.05.7-1.05.35-2.45-.7 0-.35 1.05-.7 1.4-1.4-1.05-.35-2.1-1.4-3.15.7 0 .7-.35 1.4-.35-.7-1.4 0-2.44 1.05-3.49 2.1 1.39 4.2-2.45 4.55-4.9-.7 0-.7.7-1.75.35a88.16 88.16 0 0 0 2.45-9.09c-.12 0-.24 0-.34.02-1 1.96-2.03 3.95-2.79 6.14a21.22 21.22 0 0 0-.72 2.58l-.17.12c.33.12.52.38.52.93-.54 0-1.09 0-1.44-.15-2.34 2.39-3.41 6.44-5.55 8.89v.35c-.7.35 0 .35 0 0 1.05-.7 1.05-2.45 2.44-2.45 1.4.7-2.79 2.45-1.39 4.2-2.45 1.05-3.5 3.85-4.2 6.65a83.83 83.83 0 0 0-4.97 5.2zm80.87-3.11c.35-3.15 1.75-4.9 2.79-7.35 0-1.05 1.05-.7 1.4-1.4 1.48-3.92 3.16-7.61 4.91-11.22-.1-.15-.11-.37-.01-.67h.34l.88-1.77c-.19 0-.37-.1-.52-.33 0-.7 1.05-.35 1.05-1.05.05.02.1.03.13.06l2.83-5.6c-2.13.48-1.38 3.81-3.66 4.14-.35-5.24 3.15-10.49 2.45-16.44-.7.35-2.1-.35-2.1.35.35 0 .7.35 1.05.35-.35 1.4 0 1.4-.35 2.45-1.4-.35-1.4.7-2.1 0 .7-.7.7-2.1 1.4-2.8-.7 0-1.05 0-1.4-.35.7-1.4 3.85-.7 3.15-3.14 3.15-.7 1.05-5.95 2.8-8.05-1.75 0-2.1 2.8-3.15 4.2 0 .7.7.7 1.4.7.35 2.45-2.1 1.75-2.1 3.85-.26 0-.9-.38-1.22-.3.47-1.15.34-4.39 1.92-5.65-1.4-2.8 3.15-4.55 4.54-6.65 0-.35-.34-.7-.69-.7.35.7-2.1 2.1-3.5 1.05 0-1.05.7-1.4 2.1-1.4.35-1.04 0-.69 0-2.09h1.75c-1.05 1.4 1.04 1.74 1.74 2.09-.35 1.75-1.4 4.55-.7 6.3.7 0 .7-1.05 1.4-1.4-1.75-1.05.7-3.15-.7-3.5 0-1.4 1.4-1.4 2.45-1.75 0-.69-1.4 0-1.75-.34 0-1.4 1.05-1.75 1.75-2.45 0-.7-1.4-.7-1.05-1.75 1.4-.35 0-2.1 1.05-3.15h-1.4c1.4.7-1.05 2.8-1.75 4.55 0 .35-.7.35 0 0 0-1.4 0-2.45-1.39-2.1.69-1.05 1.74-3.5 0-4.2-.7 0-.35 1.05-1.05.7 0 1.05 1.4.7 1.05 2.1-1.4.35-.7-1.05-1.75-.7-.35-2.45.7-5.25 2.79-4.2 0 .7-.69.7-1.39.7 2.09 1.75 2.09-2.8 1.74-4.89-1.04 0-.35 1.74-1.74 1.39 1.04-1.04-.35-1.74 0-3.14 1.39-.35 2.09.35 1.74 1.75 1.05-.35 1.75-1.4 3.5-1.05-.35 1.4-.35 2.79-1.05 3.49 1.4 0 1.75-1.39 1.4-2.44 1.4 0 1.05 1.74 2.45.7-1.75 11.54-3.5 22.73-5.95 34.27-.35 0-.7-.35-.7-1.05-.69 0-.35 1.75-1.39 1.4-.7-1.05 1.39-1.75 1.39-3.15-.35-1.05-.69.35-1.39 0-1.75 4.2-1.4 6.3-2.8 11.2 1.75-.7 1.75-3.5 2.8-4.9h-1.05c0-1.05 1.4-.7 2.09-1.4.15.54.23 1.06.25 1.56 1.53-3.2 3-6.49 4.3-9.95.35 0 .35-.35 1.05-.35 1.75-4.9 4.2-8.75 7.35-12.25-4.56 15.2-10.22 29.84-16.04 43.66-.37 2.63-.9 5.12-2.15 7.06.7 5.95-2.45 11.89-2.1 18.54-.7 0-.35 1.4-1.05 1.75.7 4.54-1.75 11.19-.7 15.74-.7 4.19-.35 8.04-2.45 12.59-.7.7-1.75.7-2.1 1.4 0 .35.35.69.35 1.39-.7 0-.35-1.04-1.05-1.04v-.35c-1.04-.35-.69 1.04-1.74.69-.7-2.09-.35-4.19 1.05-5.59 0-1.05-1.05-1.05-1.4-2.1 1.4-1.4-.35-5.25 1.75-5.25-1.05-1.05.34-3.49-1.4-4.54 2.09.35 3.14-.7 3.84-1.75 0-.7-1.75.35-1.05-1.05 3.15-.7 2.1-3.15 3.15-5.6 0-.35-.7-.35-1.4-.35.35-1.4 1.05-2.8-.35-3.14 0-.7.35-.7.7-1.05h-1.4c1.05-1.75 1.4-4.2 3.15-5.25 0-.35 0-.7.35-1.05-1.4 0-1.4 1.4-2.8 1.4a.7.7 0 0 1-.2-.37c-1.38 6.37-6.16 13.27-7.49 18.91-1.55 2.32-3.49 4.46-4.82 7.25a178.82 178.82 0 0 0-1.13 16.88c.35 0 .35.7 0 0-.7 1.4.7 4.9-1.05 7 .7 10.84 5.25 24.48 16.79 27.63 0-.35.35-.35 0 0 8.05 5.59 20.99-.35 27.98-3.5 5.95-5.95 9.45-12.24 14.69-18.54 0-.7.7-1.05 0-1.75 5.83-5.82 10.19-13.34 15.12-20.33a52.62 52.62 0 0 1-2.23-17.48c-4.9 7.12-10.57 13.51-14.99 21.02-7.34 7.7-13.29 17.14-22.03 23.79-.7-1.4-.35-3.85-1.75-4.9-.35 0-.35 0-.35-.35.35 0 .35 0 .35.35 1.05-2.1-3.15-5.6-1.4-7.34-1.05 0-1.4 0-1.4-1.05.7 0 1.4.35 1.4-.35-1.4-3.15-1.05-4.55.35-7.35-2.1-1.75.35-3.15.35-5.59 1.05 0 .7.7 1.4 0 .7-1.4.35-1.4.7-3.5h-.35c-.7 1.05-.7 2.45-2.1 2.45 0-.35-.35-.35-.7-.35 0-5.25 2.1-7.7.35-11.89.7 0 .7-.35 1.05-.35-.7-4.9 2.1-9.1.7-14 .35-.69.7-1.04 1.05-1.74-.7 0-1.05-.35-1.05-.7 1.4 0 1.4-1.4 2.8-1.05-.7-3.15.7-4.55 1.05-8.05 0-.7-1.05-.35-1.05-1.05.7-4.54 2.45-10.84 1.75-14.69 0-1.05 1.4-.35 1.05-1.4-1.75-1.04 1.4-2.44-.35-4.19 3.84-6.65.7-13.64 3.84-21.34 0-1.05-1.05-.7-1.05-1.75 1.4-3.49 2.1-9.09 4.2-11.89-2.45-3.85 1.05-7.69 0-11.54 1.05 0 .35-2.1 2.1-1.4-1.75-4.55 2.1-7.69 3.85-10.84-1.4-1.4-.35-3.15-1.75-4.2 1.4-1.05.7-3.5 2.8-2.8-1.05-2.1 3.14-4.19.35-5.94 1.4-.7 1.05-2.1.35-3.15 3.49-5.95 4.19-12.94 7.34-18.54 0-.7 0-1.4-.35-1.75 5.95-3.84 9.79-10.49 15.39-15.04 8.05-7.34 12.24-18.88 18.19-28.33-.7 0-.7-.35-.7-.7 3.5-1.75 3.85-6.64 6.29-9.44-1.74-2.1 1.05-4.55 0-7 2.8-6.64 4.2-15.73 7-23.43.35-12.59 8.74-29.03-1.75-38.47V2.45c-2.1-1.75-4.2-2.1-7.34-2.45 0 .35 0 1.05-.35 1.05-5.25 1.4-10.5-.35-16.44-.7-.35 1.75-2.1 2.1-3.5 3.15-8.04 9.79-16.79 20.63-20.64 33.22-1.74 1.05-2.44 3.5-2.79 5.95-5.95 14.34-12.25 32.18-14.69 46.87-2.1 2.1-3.5 6.64-2.8 9.09-1.4-.35-.35 1.75-1.75 1.4.35 1.4.35 1.05.35 2.8-.7 0-1.05.35-1.05 1.05.7 0 1.05-.7 1.05 0-.7 2.8-2.45 4.55-2.1 8.04-.7 0-.35 1.05-1.4.7-.35 1.05 1.05.7.7 1.75-1.05 0-1.05-.7-1.4.35.35 2.45-4.89 10.14-1.75 12.94 0-2.1.7-3.15 2.8-3.5-1.05 1.4-1.4 3.5-2.8 4.55-.7 0-.35-1.05-1.4-.7-1.05 1.05 1.05.35.7 1.75-3.84 4.2-3.49 11.54-5.24 17.14.35.7 1.4.35 1.05 1.75-2.1 3.85-2.8 9.09-3.85 13.64.35 0 1.05 0 1.05.35-1.75 1.4-1.4 3.85-2.8 5.94.7 3.5-2.8 7-1.05 9.45-3.5 12.24-3.5 23.78-7.69 37.77.7 2.1 0 7.7-1.75 9.45-.7 4.19-.35 6.29-2.1 8.74-.08 4.83-.4 9.37-.83 13.77 1.7-2.45 2.92-5.32 4.68-7.82zm64.43 41.57c2.73 9.03 7.67 16.89 13.56 22.43 5.95 1.75 11.54 7.35 19.94 6.65 4.55-.7 7.34-1.05 11.19-1.4.35-.35.7-1.4 1.4-1.75 1.05 1.05 2.1-.7 2.8 0 1.75-1.75 3.5-3.85 6.64-4.55 5.6-4.89 11.2-9.79 16.79-15.74-1.4-.7 1.75-.35.7-2.1 8.05-7.34 16.09-16.08 21.34-24.13-.7-.35-.35-1.4-.7-2.1 2.45-4.54 6.99-8.74 7.34-13.99.7 0 1.4 0 1.4-1.05.7-4.89 3.15-9.44 5.25-13.64 0-1.05-.7-1.4-.35-2.8 1.05-3.14 1.75-8.04 4.55-10.84 0-.7-.35-.7-.7-1.05 2.09-1.4 1.39-3.85 3.84-5.24.35-5.95 6.3-6.65 10.85-8.75 1.74-3.85 7.69-4.2 9.44-8.04 4.9-1.4 6.64-5.95 11.54-7.7 8.4-9.09 17.84-16.79 23.43-28.33-5.24 1.4-7.69 8.4-12.59 10.84-7.34 10.15-19.23 15.39-30.43 21.69-2.09 0-2.79 1.4-4.89 1.05 1.75-12.94 4.89-26.23-2.45-35.68-4.2-3.14-10.49-4.19-15.74-6.64-.7 0-.7.35-1.4.35 0-.35 0-.35-.35-.35-11.54 4.54-15.74 16.09-23.78 24.13-.7 2.8-2.1 5.25-3.85 7-1.75 6.99-4.9 14.69-.35 20.98 6.65 7.7 17.84 11.54 30.78 8.05-2.45 7.34-6.65 13.64-8.39 20.63-1.05 0-1.05 1.05-1.75 1.05 0 1.05-1.05 1.4-.7 2.8-15.04 23.43-31.83 45.12-55.26 60.16-3.85 1.05-7.35 4.2-11.55 3.5-4.54-5.6-7.69-11.9-8.04-20.64-.35-6.3 2.1-12.94 2.45-19.59 2.1-.7 2.1-2.44 1.75-3.84.7-.35 1.04-1.05 2.09-1.05-.35-1.05.35-1.75 1.05-2.1-.35-3.15 2.1-3.5 1.75-6.65 1.4-.35 1.4-2.45 1.75-3.84 2.45-2.8 4.55-10.15 7-15.04 4.54-7.35 7.69-16.44 13.99-22.04-.35-2.8 2.79-3.5 2.1-5.6 1.04.35.69-1.04 1.74-.69-1.05-1.75 1.75-1.4 1.4-3.5 4.55-1.05 4.55-6.3 8.75-7.7.35-.35.35-1.75.7-2.1 5.24-3.14 6.64-8.39 10.49-12.59-.35-1.4.35-1.75.7-2.79-.35-10.15-11.89-14.69-19.59-18.19-4.54 3.84-8.39 8.39-11.89 13.29-1.75 1.75-4.2 2.8-4.55 5.59-.7 0-1.4 0-1.75.35-1.39 5.25-6.99 6.3-7.69 11.9-2.1.35-1.75 3.14-3.85 3.14-4.89 9.1-10.49 17.84-15.39 26.94a91.88 91.88 0 0 1-6.29 17.48c-1.4 7.7-3.85 16.79-7 22.74.7 0 .7.35.7 1.05a50.46 50.46 0 0 0-2.15 12.55 65.2 65.2 0 0 0 7.4-13.6c3.15-2.8 4.55-7 6.99-10.49.35-3.15 1.75-4.9 2.8-7.35 0-1.05 1.05-.7 1.4-1.4 4.9-12.94 11.89-23.43 16.79-36.37.35 0 .35-.35 1.05-.35a35.9 35.9 0 0 1 7.34-12.25c-6.29 20.99-14.69 40.93-22.73 59.11-.35 2.1-.35 4.2-2.1 5.6-1.05 6.65-6.3 13.99-7.69 19.94-2.1 3.14-4.9 5.94-5.95 10.49a102.25 102.25 0 0 0-3.07 4.15zm-55.62-45.12a.48.48 0 0 1-.07.05c0-.35-.35-.7-.7-.7-.35 1.05-.35 1.4-1.4 1.05-.35 2.45-1.75 5.24-1.4 8.04-.7.7-1.4.7-1.75 1.4 1.48 0 .7 1 .86 1.73.07-.34.14-.69.19-1.03a4.34 4.34 0 0 0 1.32-1.8c-.07-.25.07-.57.28-.84.24-.93.33-1.95.5-2.96l2.17-4.94zm-65.13-50.67c-.8 1.7-1.65 3.31-2.54 4.87l.1.03c-.7 1.4-.35 2.1-1.05 3.5a1.22 1.22 0 0 1-.8-.57c-1.1 1.8-2.23 3.56-3.35 5.33.43 5.72-2.84 10.8-2.5 15.87 2.34-.33 1.48-3.86 3.86-4.17a33.64 33.64 0 0 0 2.65-6.27 7.47 7.47 0 0 0-.21-1.1c-.7.7-2.1.35-2.1 1.4h1.05c-1.05 1.4-1.05 4.2-2.8 4.9 1.4-4.9 1.05-7 2.8-11.2.7.35 1.05-1.05 1.4 0 0 1.4-2.1 2.1-1.4 3.15 1.05.35.7-1.4 1.4-1.4 0 .7.35 1.05.7 1.05 1.1-5.17 2.05-10.28 2.93-15.37a.62.62 0 0 0-.14-.02zm-48.96-20.63c1.4 1.4 1.75 3.49 2.1 5.94-.35 1.4-1.75 2.1-1.4 4.2-10.84 15.04-24.83 28.68-40.92 37.07-2.1 2.1-5.6 3.15-7.35 5.6-8.39 3.85-16.09 8.74-23.43 13.29 1.4-20.63 15.39-32.18 25.88-46.52 12.24-8.74 26.93-22.03 45.12-19.58zm37.42 54.21c.7 0 1.05-.35 1.05-.7-.7 0-1.4 0-1.05.7zm-4.54 6.29c.35 1.05.7-1.39 0 0zm-2.8 7.35c-1.4 0 0 1.4 0 0 1.05 0 2.45-1.75 1.4-2.8-.35 1.05-1.05 1.75-1.4 2.8zm-3.5 3.5c.35 1.4.35-1.4 0 0zm88.49-224.2c4.2 2.1 5.95 7.7 5.95 12.94-2.8 2.1.35 7.7-2.45 9.45.35 1.74-.35 3.84-1.05 5.24.35 1.4.35 1.4 0 2.8-2.45 11.19-8.05 21.69-11.89 32.18-7.35 11.19-14.69 22.03-24.14 31.13 2.1-4.9 2.8-12.59 5.6-17.84 0-.7-.7-1.05-.35-2.1 4.2-12.59 8.04-26.58 12.94-38.47v-2.8c2.8-5.95 4.2-11.19 6.65-16.44.7 0 .7-.7 1.74-.7.7-6.29 4.2-10.14 7-15.39zm-61.21 122.77c.7 1.4.7 4.89-1.4 4.54 1.05-1.74 1.4-2.79 1.4-4.54zm-.35 4.89c0 1.4-1.05 1.4-.35 2.45-.35 0-.7 0-.7.35-.35 0-.35-1.05 0-1.05 0-.35-.35-.35-.7-.35 0-1.05.7-1.4 1.75-1.4zm-2.8.7c.7.35 1.05 1.4-.35 1.4 0-.7.35-1.05.35-1.4zm.7 3.5h.7v.7c-.35 0-.35 0-.35.35h-.7v-.7c.35 0 .35 0 .35-.35zm1.05 3.5c0 1.05-.7 1.75-1.4 1.05.7-.35.35-1.05 1.4-1.05zm2.45 0c.7 0 .7.35 1.4.35-1.05 2.45 0 8.04-3.85 9.09.7-1.75 1.75-2.45 1.75-4.2-1.75.7-3.15 1.75-2.8 4.55-1.05 0-1.4.7-1.75 1.05l-1.04-1.05c-1.05.7-1.4 1.75-2.1 2.8-1.75-1.4 1.4-3.5 2.1-4.9.34-1.05-.7-1.4-.35-2.45 1.04-.69 2.09-1.39 3.49-2.09-.96-1.29 1.9-.5 2.38.17-.53-1.57.77-1.63.77-3.32zm-2.1 11.89c1.4 1.4-.35 4.55-.35 6.65-1.4.35-1.4-.35-2.45-.35 0-1.4 1.05-1.75 2.1-2.1 0-.7-1.75.35-1.05-1.05 1.05 0 .35-2.45 1.75-3.15zm-3.85.7c.7 0 .35 1.75-.34 1.05v-.7c.34 0 .34 0 .34-.35zm-.34 4.2c-1.75 0 0-1.75-2.1-.7 0-1.05 1.05-.7 1.05-1.75.7.35 2.09-.35 2.09.35v.7c1.75-.35.35 1.05 0 0-1.04 0-1.04.7-1.04 1.4zm-8.75 37.07c.05-.16.1-.3.12-.42l-.24.4c.04 0 .08 0 .12.02zm.12-.42l1.33-2.16c0-.19-.03-.38-.05-.57-.7.35-2.1-.35-2.1.35.35 0 .7.35 1.05.35-.3 1.18-.1 1.37-.23 2.03zm-1.34-5.47a.9.9 0 0 1-.18.3c0-.18.07-.27.18-.3zm5.77-26.29c.35-1.4.35 1.4 0 0zm-5.95 6.3c1.05-.35 1.05 1.75 0 1.05v-1.05zm-.7 1.05c0 .35-.35.7-1.05.7 0-.35.35-.7 1.05-.7zm4.55 7.69c0 1.05-.7 1.05-1.75 1.05.35-.7.7-1.05 1.75-1.05zm-6.65 4.9c2.1 1.05 0 3.15-1.74 3.15 0-1.05 1.04-.7 1.74-1.05.35-1.05-1.05-.35-.7-1.75.35 0 .7 0 .7-.35zm-.35 3.15c1.05-.35.35 2.8-.7 2.45-.34-1.4.7-1.4.7-2.45zm2.8 13.29c-.7.7-2.1 2.45-1.4 3.5 3.15-.7 1.75-4.9 3.15-6.65-.28 0-.57-.46-.85-.64a2.7 2.7 0 0 0-.33.11c-.21.26-.47.45-.73.64-.27.73-.58 1.41-.93 2.04.5.17.8.7 1.09 1zm-3.5 9.09c.7 0 1.05 0 1.05-.7h-.7c0 .35-.35.35-.35.7zm1.75-.35v.7c.7.7 1.05-1.05.35-1.05 0 .35 0 .35-.35.35zm2.1 2.8c.42.63 1.08.26 1.33-.22l.1-.26c.03-.24-.07-.47-.38-.57 0 .7-1.05.35-1.05 1.05zm-.7 2.1c-.17.5-.01.77.31.9.29-.28.6-.55.92-.78-.3-.12-.73-.12-1.23-.12zm-2.1 1.4c.35 0 .35.35.7.35 0-.7 0-1.05-.7-1.05v.7zm4.9-.7c1.4-.35.7 2.45-.35 1.75.35-.35.35-1.05.35-1.75zm-13.99 18.19h.7v-.7h-.7v.7zm4.9 3.84c.7 1.05 0 4.2-1.4 4.2 0-2.1 1.05-2.8 1.4-4.2zm-3.85 29.03c.7.35.7.7.35 1.05h-.7v-.7c.35 0 .35 0 .35-.35zm5.6 11.9c.35 0 .35.69.7.69 0 1.05-1.05 0-.7-.69zm.35 2.44c-.35 1.75-.35 1.75.35 3.15-3.15 6.3 1.04 12.59.69 19.59h-2.09c.35-2.1.35-4.55-1.4-5.95.35-1.75 0-1.4-.35-2.8 2.45-1.05 1.05-4.54 0-5.94 1.4-.35 1.4-5.95.7-6.65.7-.35 1.05-1.4 2.1-1.4zm-4.55 10.5c.7-1.4.35 1.05 0 0zm1.4 9.09c.35 0 .7.35.7 1.05-.7 0-.7-.35-1.05-.35 0-.35.35-.35.35-.7zm5.59 7c-2.44-.35-1.05-2.45-2.79-2.8 1.39-1.4 2.09 1.75 2.79 2.8zm-2.79 2.44c2.44.35 3.14 2.8 5.59 3.5-2.8.35-3.85-2.1-6.64-2.45-.7-1.4 1.05-.35 1.05-1.05zm-5.95 5.95c0-.7 1.75-.35 1.05.35h-.7c0-.35 0-.35-.35-.35zm1.4 0c0-.35.35-.35.7-.35 0 .35-.35.35-.7.35zm1.75 1.05c.7 0 .7.35 1.05.35 0 .35-.35.35-.35.7h-.7v-1.05zm2.45 1.05c1.4.7 3.84.7 4.19 2.45-2.1.35-2.1-1.75-3.84-.7.35-1.05-.35-1.05-.35-1.75zm4.54 2.45c1.05 0 1.75 0 1.75 1.05-1.05 0-1.75 0-1.75-1.05zm14.34-174.18c.35-.35 0-.35 0 0zm-2.8 3.14h.7v-.7h-.7v.7zm0 17.49c.35-.35 0-.35 0 0zm0 0c-.69.35 0 .35 0 0zm.35 2.8c0-.35-.35-.35-.35 0zm-4.19 14.69c-.35 2.1 1.4 0 0 0zm1.4 1.75c0-.35.35-.35 0 0zm-1.85 2.93a109 109 0 0 0 1.75-2.96c-1.88-.45-2.46 1.83-1.75 2.96zm-.6 4.76c-.35 0-.7 0-.7-.7 0-1.39 1.75-2.79 3.15-1.74-1.4.69-.7 1.04-2.45 1.39v1.05zm0 6.3c0-.35.7-.35.7 0h-.7zm-6.3 22.03c-.35 2.1.35-1.39 0 0zm-1.4 10.85c-.35 0-.7 0-.7.35.35 0 .7 0 .7-.35zm-.35 4.89c.87.29.54-.87 1-1.09-.7 0-1.23.17-1 1.09zm1-1.09l.4.01c-.18-.06-.31-.05-.4 0zm.75 1.44c0-.35.35-.7.35-1.4-.22 0-.46.36-.7.35 0 .35 0 1.05.35 1.05zm-2.1 1.05c1.05-.7-1.05-1.05 0 0zm-.7 1.75c0-.7.7-.7.7-1.75-.7 0-1.74 1.4-.7 1.75zm.7 2.8c.35 0 .35-.35 0-.35zm-1.05 4.2c-.34-.7 1.05-1.4-.34-1.4 0 .7 0 1.4.34 1.4zm.35.7c0-.35-1.04-.35-1.04 0h1.04zm-1.04 11.19c-.35.35 0 .7 0 1.05.35 0 .35-1.05 0-1.05zm0 1.05c-.7.35 0 .35 0 0zm-1.05 8.74v-.7c-.35 0-.35-.35-.7-.35-.35.35-.35.7-.35 1.05h1.05zm-1.75 2.8c-1.05 1.05-.35 3.15-1.05 4.9 1.75-.7.7-3.85 1.75-5.25-1.05-.35-.7-1.05-.35-2.1-2.1-.35-.35 1.75-.35 2.45zm22.38 1.75c.35-.35 0-.35 0 0zm-22.73 4.2h.7c0-.35-.7-.35-.7 0zm21.68 3.49c-.35-.35-.35 0 0 0zm0 0c.35.7.35 0 0 0zM451.63 12.24c4.19 2.1 5.94 7.7 5.94 12.94-2.8 2.1.35 7.7-2.45 9.45.35 1.74-.35 3.84-1.04 5.24.34 1.4.34 1.4 0 2.8-2.45 11.19-8.05 21.69-11.9 32.18-7.34 11.19-14.69 22.03-24.13 31.13 2.1-4.9 2.8-12.59 5.6-17.84 0-.7-.7-1.05-.35-2.1 4.19-12.59 8.04-26.58 12.94-38.47v-2.8c2.8-5.95 4.19-11.19 6.64-16.44.7 0 .7-.7 1.75-.7.7-6.29 4.2-10.14 7-15.39zm-61.21 122.77c.7 1.4.7 4.89-1.4 4.54 1.05-1.74 1.4-2.79 1.4-4.54zm-.35 4.89c0 1.4-1.05 1.4-.35 2.45-.35 0-.7 0-.7.35-.35 0-.35-1.05 0-1.05 0-.35-.35-.35-.7-.35 0-1.05.7-1.4 1.75-1.4zm-2.8.7c.7.35 1.05 1.4-.35 1.4 0-.7.35-1.05.35-1.4zm.7 3.5h.7v.7c-.35 0-.35 0-.35.35h-.7v-.7c.35 0 .35 0 .35-.35zm1.05 3.5c0 1.05-.7 1.75-1.4 1.05.7-.35.35-1.05 1.4-1.05zm2.45 0c.7 0 .7.35 1.4.35-1.05 2.45 0 8.04-3.85 9.09.7-1.75 1.75-2.45 1.75-4.2-1.75.7-3.15 1.75-2.8 4.55-1.05 0-1.4.7-1.75 1.05l-1.05-1.05c-1.05.7-1.4 1.75-2.1 2.8-1.74-1.4 1.4-3.5 2.1-4.9.35-1.05-.7-1.4-.35-2.45 1.05-.69 2.1-1.39 3.5-2.09-.96-1.29 1.9-.5 2.38.17-.53-1.57.77-1.63.77-3.32zm-2.1 11.89c1.4 1.4-.35 4.55-.35 6.65-1.4.35-1.4-.35-2.45-.35 0-1.4 1.05-1.75 2.1-2.1 0-.7-1.75.35-1.05-1.05 1.05 0 .35-2.45 1.75-3.15zm-3.85.7c.7 0 .35 1.75-.35 1.05v-.7c.35 0 .35 0 .35-.35zm-.35 4.2c-1.75 0 0-1.75-2.1-.7 0-1.05 1.05-.7 1.05-1.75.7.35 2.1-.35 2.1.35v.7c1.75-.35.35 1.05 0 0-1.05 0-1.05.7-1.05 1.4zm-3.25 40.38c-.94 1.97-1.9 3.91-2.88 5.85.16-.04.34-.06.54-.06-.7 3.14-1.4 5.94-2.45 9.09 1.05.35 1.05-.35 1.75-.35-.35 2.45-2.45 6.29-4.55 4.9-1.05 1.05-1.75 2.09-1.05 3.49-.7 0-.7.35-1.4.35 1.05 1.05 0 2.1 1.4 3.15.35-.35 0-1.4.7-1.4.35 1.4-.7 1.4-.35 2.45.69 0 1.7-1.34 2.4-.41.86-1.97 1.7-3.95 2.55-5.95.55-4 .71-8.31 2.4-11.48-.6-3.9 1.12-6.52.94-9.63zm-6.54 29.92c.1-.44.05-.87-.03-1.26l-.55 1.26c.14-.06.32-.06.58 0zm.7-2.8a1.35 1.35 0 0 0-.04-.06l-.03.06h.07zm-.87-36.32a.9.9 0 0 1-.18.3c0-.18.07-.27.18-.3zm.14 37.86l.66-1.54c-1.12.03-.84.68-.66 1.54zm-1 2.29l.45-1.03c-.35.14-.38.6-.45 1.03zm0 0l-.3.67c.19-.13.25-.4.3-.67zm6.63-66.44c.35-1.4.35 1.4 0 0zm-5.95 6.3c1.05-.35 1.05 1.75 0 1.05v-1.05zm-.7 1.05c0 .35-.35.7-1.05.7 0-.35.35-.7 1.05-.7zm4.55 7.69c0 1.05-.7 1.05-1.75 1.05.35-.7.7-1.05 1.75-1.05zm-6.65 4.9c2.1 1.05 0 3.15-1.75 3.15 0-1.05 1.05-.7 1.75-1.05.35-1.05-1.05-.35-.7-1.75.35 0 .7 0 .7-.35zm-.35 3.15c1.05-.35.35 2.8-.7 2.45-.35-1.4.7-1.4.7-2.45zm3.5 9.44c.35 0 .7.7 1.05.7-1.4 1.75 0 5.95-3.15 6.65-.7-1.05.7-2.8 1.4-3.5-.35-.35-.7-1.05-1.4-1.05 0-1.75 1.4-1.75 2.1-2.8zm-3.85 12.24h.7c0 .7-.35.7-1.05.7 0-.35.35-.35.35-.7zm1.75 0c.7 0 .35 1.75-.35 1.05v-.7c.35 0 .35 0 .35-.35zm2.93 2.16l-.66 1.32c.63.03 1.28-.98.66-1.32zm-1.54 3.1l-.33.66c.25.38 1 .38 1.74.38 0-.93-.55-1.04-1.41-1.05zm-2.44.69c.7 0 .7.35.7 1.05-.35 0-.35-.35-.7-.35v-.7zm4.55 1.75c1.05.7 1.75-2.1.35-1.75 0 .7 0 1.4-.35 1.75zm-3.5 12.24s.35.35 0 0zm-10.14 3.5h.7v.7h-.7v-.7zm3.5 8.74c1.39 0 2.09-3.15 1.39-4.2-.35 1.4-1.39 2.1-1.39 4.2zm-2.45 24.83c.7.35.7.7.35 1.05h-.7v-.7c.35 0 .35 0 .35-.35zm5.59 11.9c.35 0 .35.69.7.69 0 1.05-1.05 0-.7-.69zm.35 2.44c-.35 1.75-.35 1.75.35 3.15-3.15 6.3 1.05 12.59.7 19.59h-2.1c.35-2.1.35-4.55-1.4-5.95.35-1.75 0-1.4-.35-2.8 2.45-1.05 1.05-4.54 0-5.94 1.4-.35 1.4-5.95.7-6.65.7-.35 1.05-1.4 2.1-1.4zm-4.54 10.5c.7-1.4.35 1.05 0 0zm1.4 9.09c.34 0 .69.35.69 1.05-.69 0-.69-.35-1.04-.35 0-.35.35-.35.35-.7zm5.59 7c-2.45-.35-1.05-2.45-2.8-2.8 1.4-1.4 2.1 1.75 2.8 2.8zm3.15-2.8s.35.35 0 0zm-5.95 5.24c2.45.35 3.15 2.8 5.6 3.5-2.8.35-3.85-2.1-6.65-2.45-.7-1.4 1.05-.35 1.05-1.05zm-5.94 5.95c0-.7 1.75-.35 1.05.35h-.7c0-.35 0-.35-.35-.35zm1.4 0c0-.35.35-.35.7-.35 0 .35-.35.35-.7.35zm1.75 1.05c.69 0 .69.35 1.04.35 0 .35-.35.35-.35.7h-.69v-1.05zm2.44 1.05c1.4.7 3.85.7 4.2 2.45-2.1.35-2.1-1.75-3.85-.7.35-1.05-.35-1.05-.35-1.75zm4.55 2.45c1.05 0 1.75 0 1.75 1.05-1.05 0-1.75 0-1.75-1.05zm14.34-174.18c.35-.35 0-.35 0 0zm-2.8 3.14h.7v-.7h-.7v.7zm0 17.49c.35-.35 0-.35 0 0zm0 0c-.7.35 0 .35 0 0zm.35 2.8c0-.35-.35-.35-.35 0zm-4.2 14.69c-.34 2.1 1.4 0 0 0zm1.4 1.75c.35-.35 0-.35 0 0zm-1.05 3.5c.7-1.4.35-2.1 1.05-3.5-2.44-.7-2.79 3.15-1.05 3.5zm-1.39 3.14c1.74-.35 1.04-.7 2.44-1.39-1.4-1.05-3.14.35-3.14 1.74 0 .7.35.7.7.7v-1.05zm.7 7.35c0-.35-.7-.35-.7 0h.7zm-7 22.03c.35-1.39-.35 2.1 0 0zm-2.1 11.2c0-.35.35-.35.7-.35 0 .35-.35.35-.7.35zm.35 4.54c1.05.35.35-1.05 1.4-.7 0 .35 0 1.05.35 1.05 0-.35.35-.7.35-1.4-1.05 0-2.45-.35-2.1 1.05zm-.35 1.4c1.05-.7-1.05-1.05 0 0zm-.85.51c-.07.3-.16.57-.28.85.05.17.18.3.43.39 0-.7.7-.7.7-1.75-.28 0-.61.22-.85.51zm.85 4.04c.35 0 .35-.35 0-.35zm-1.05 4.2c-.35-.7 1.05-1.4-.35-1.4 0 .7 0 1.4.35 1.4zm.35.7c0-.35-1.05-.35-1.05 0h1.05zm-1.05 11.19c-.35.35 0 .7 0 1.05.35 0 .35-1.05 0-1.05zm0 1.05c-.7.35 0 .35 0 0zm-1.05 8.74v-.7c-.35 0-.35-.35-.7-.35-.35.35-.35.7-.35 1.05h1.05zm-1.75 2.8c-1.04 1.05-.35 3.15-1.04 4.9 1.74-.7.69-3.85 1.74-5.25-1.05-.35-.7-1.05-.35-2.1-2.09-.35-.35 1.75-.35 2.45zm22.39 1.75c.35-.35 0-.35 0 0zm-22.74 4.2h.7c0-.35-.7-.35-.7 0zm21.69 3.49c-.35-.35-.35 0 0 0zm0 0c.35.7.35 0 0 0zm149-89.54c-7 1.4-13.99 6.3-22.04 3.15-3.15-11.19 1.4-25.53 7.35-31.83 3.84-4.19 8.39-6.99 12.24-10.14 1.05.35 1.4-.35 2.45-.35 6.29 9.79 1.75 25.88 0 39.17z"/></svg>